<?xml version="1.0" encoding="utf-8"?>
<!-- Generator: Adobe Illustrator 25.2.0, SVG Export Plug-In . SVG Version: 6.00 Build 0)  -->
<svg version="1.1" id="Layer_1" xmlns="http://www.w3.org/2000/svg" xmlns:xlink="http://www.w3.org/1999/xlink" x="0px" y="0px"
	 viewBox="0 0 128 128" style="enable-background:new 0 0 128 128;" xml:space="preserve">
<style type="text/css">
	.st0{fill:url(#SVGID_1_);}
	.st1{fill:url(#SVGID_2_);}
	.st2{fill:#5BBCCE;}
</style>
<g id="Inclusion">
	<g id="Inclusion-2">
		
			<linearGradient id="SVGID_1_" gradientUnits="userSpaceOnUse" x1="1.030061e-02" y1="64.2261" x2="64.0069" y2="64.2261" gradientTransform="matrix(1 0 0 -1 0 128.23)">
			<stop  offset="0" style="stop-color:#4999CF"/>
			<stop  offset="4.000000e-02" style="stop-color:#4E93D1"/>
			<stop  offset="0.27" style="stop-color:#6279D8"/>
			<stop  offset="0.5" style="stop-color:#7067DE"/>
			<stop  offset="0.74" style="stop-color:#795CE1"/>
			<stop  offset="1" style="stop-color:#7C58E2"/>
		</linearGradient>
		<path class="st0" d="M64,101c-20.4,11.8-46.5,4.8-58.3-15.6C-6,64.9,1,38.8,21.4,27c13.2-7.6,29.4-7.6,42.6,0
			C43.6,38.8,36.6,64.9,48.4,85.3C52.1,91.8,57.5,97.2,64,101z"/>
		
			<linearGradient id="SVGID_2_" gradientUnits="userSpaceOnUse" x1="42.6642" y1="64.2296" x2="85.3414" y2="64.2296" gradientTransform="matrix(1 0 0 -1 0 128.23)">
			<stop  offset="0" style="stop-color:#234DD1"/>
			<stop  offset="0.21" style="stop-color:#2754D1"/>
			<stop  offset="0.52" style="stop-color:#3169D1"/>
			<stop  offset="0.9" style="stop-color:#428AD0"/>
			<stop  offset="1" style="stop-color:#4794D0"/>
		</linearGradient>
		<path class="st1" d="M85.3,64c0,15.2-8.1,29.3-21.3,37C43.6,89.2,36.6,63.1,48.4,42.7C52.1,36.2,57.5,30.8,64,27
			C77.2,34.7,85.3,48.8,85.3,64z"/>
		<path class="st2" d="M128,64c0,23.6-19.1,42.7-42.7,42.7c-7.5,0-14.8-2-21.3-5.7c20.4-11.8,27.4-37.9,15.6-58.3
			C75.9,36.2,70.5,30.8,64,27c20.4-11.8,46.5-4.8,58.3,15.7C126,49.2,128,56.5,128,64z"/>
	</g>
</g>
</svg>
