<?xml version="1.0" encoding="utf-8"?>
<!-- Generator: Adobe Illustrator 25.2.0, SVG Export Plug-In . SVG Version: 6.00 Build 0)  -->
<svg version="1.1" id="Layer_1" xmlns="http://www.w3.org/2000/svg" xmlns:xlink="http://www.w3.org/1999/xlink" x="0px" y="0px"
	 viewBox="0 0 128 128" style="enable-background:new 0 0 128 128;" xml:space="preserve">
<style type="text/css">
	.st0{fill:#5BBCCE;}
	.st1{fill:url(#SVGID_1_);}
	.st2{fill:url(#SVGID_2_);}
</style>
<g id="Ingenuity">
	<g id="Ingenuity-2">
		<rect x="52.9" y="71.7" class="st0" width="45.9" height="23"/>
		
			<linearGradient id="SVGID_1_" gradientUnits="userSpaceOnUse" x1="65.6578" y1="87.6075" x2="35.7107" y2="5.3239" gradientTransform="matrix(1 0 0 -1 0 128.23)">
			<stop  offset="0" style="stop-color:#4999CF"/>
			<stop  offset="4.000000e-02" style="stop-color:#4E93D1"/>
			<stop  offset="0.27" style="stop-color:#6279D8"/>
			<stop  offset="0.5" style="stop-color:#7067DE"/>
			<stop  offset="0.74" style="stop-color:#795CE1"/>
			<stop  offset="1" style="stop-color:#7C58E2"/>
		</linearGradient>
		<path class="st1" d="M78.8,46.2h-7.2c0,9.7-7.8,17.5-17.5,17.5s-17.5-7.8-17.5-17.5h-6.3c-7,0-12.7,5.7-12.7,12.7v12
			C10.8,68.5,3.3,72,0.8,78.8C-1.6,85.6,1.9,93,8.7,95.5c1.4,0.5,2.9,0.8,4.4,0.8c1.5,0,3-0.3,4.5-0.8v12c0,7,5.7,12.7,12.7,12.7
			h48.5c7,0,12.7-5.7,12.7-12.7V58.9C91.5,51.9,85.8,46.2,78.8,46.2z"/>
		<path class="st0" d="M114.9,44.6c-1.5,0-3,0.3-4.5,0.8v-12c0-7-5.7-12.7-12.7-12.7h-9C89,13.6,83.3,7.6,76.1,7.5
			C69,7.3,63,13,62.9,20.1c0,0.2,0,0.4,0,0.6H49.2c-7,0-12.7,5.7-12.7,12.7V82c0,7,5.7,12.7,12.7,12.7h3.6
			c3-11.4,14.7-18.2,26.1-15.2c7.4,2,13.2,7.8,15.2,15.2h3.6c7,0,12.7-5.7,12.7-12.7V70c6.8,2.5,14.3-1,16.8-7.8
			c2.5-6.8-1-14.3-7.8-16.8C118,44.9,116.5,44.6,114.9,44.6L114.9,44.6z"/>
		
			<linearGradient id="SVGID_2_" gradientUnits="userSpaceOnUse" x1="36.5672" y1="57.794" x2="91.4744" y2="57.794" gradientTransform="matrix(1 0 0 -1 0 128.23)">
			<stop  offset="0" style="stop-color:#3674D4"/>
			<stop  offset="0.64" style="stop-color:#2B4FD0"/>
			<stop  offset="1" style="stop-color:#2640CE"/>
		</linearGradient>
		<path class="st2" d="M81.2,46.4c-0.4-0.1-0.8-0.1-1.2-0.2c-0.4,0-0.8-0.1-1.2-0.1h-7.2c0,9.7-7.8,17.5-17.4,17.6
			c-9.1,0-16.7-6.9-17.5-15.9v34.4c0,6.8,5.6,12.4,12.4,12.4h42.5V58.9C91.5,52.8,87.2,47.6,81.2,46.4z"/>
	</g>
</g>
</svg>
