<?xml version="1.0" encoding="utf-8"?>
<!-- Generator: Adobe Illustrator 25.2.0, SVG Export Plug-In . SVG Version: 6.00 Build 0)  -->
<svg version="1.1" id="Layer_1" xmlns="http://www.w3.org/2000/svg" xmlns:xlink="http://www.w3.org/1999/xlink" x="0px" y="0px"
	 viewBox="0 0 128 128" style="enable-background:new 0 0 128 128;" xml:space="preserve">
<style type="text/css">
	.st0{fill:url(#SVGID_1_);}
	.st1{fill:#5BBCCE;}
	.st2{fill:url(#SVGID_2_);}
	.st3{fill:#FAF2F2;}
</style>
<g id="Curiosity">
	<g id="Curiosity_1">
		
			<linearGradient id="SVGID_1_" gradientUnits="userSpaceOnUse" x1="3.814697e-06" y1="64.23" x2="128" y2="64.23" gradientTransform="matrix(1 0 0 -1 0 128.23)">
			<stop  offset="0" style="stop-color:#5EC0D1"/>
			<stop  offset="0.14" style="stop-color:#61B0D3"/>
			<stop  offset="0.4" style="stop-color:#6A88D8"/>
			<stop  offset="0.77" style="stop-color:#7946E1"/>
			<stop  offset="0.8" style="stop-color:#7A40E2"/>
		</linearGradient>
		<path class="st0" d="M128,64l-0.8,1.7c-0.2,0.4-4.5,8.9-14.5,17.5c-5.8,5-12.4,9-19.6,11.8c-18.8,7.1-39.5,7.1-58.2,0
			c-7.1-2.8-13.7-6.8-19.6-11.8C5.3,74.6,1,66,0.8,65.7L0,64l0.8-1.7C1,62,5.3,53.4,15.3,44.9c5.8-5,12.4-9,19.6-11.8
			c18.8-7.1,39.5-7.1,58.2,0c7.1,2.8,13.7,6.8,19.6,11.8c10,8.5,14.3,17.1,14.5,17.5L128,64z"/>
		<circle class="st1" cx="64" cy="64" r="28.5"/>
		
			<linearGradient id="SVGID_2_" gradientUnits="userSpaceOnUse" x1="49.2058" y1="63.6656" x2="78.9091" y2="63.6656" gradientTransform="matrix(1 0 0 -1 0 128.23)">
			<stop  offset="0" style="stop-color:#3674D4"/>
			<stop  offset="0.64" style="stop-color:#2B4FD0"/>
			<stop  offset="1" style="stop-color:#2640CE"/>
		</linearGradient>
		<circle class="st2" cx="64.1" cy="64.6" r="14.9"/>
		<circle class="st3" cx="74.5" cy="55.1" r="7.2"/>
	</g>
</g>
</svg>
